<?xml version="1.0" standalone="no"?>
<!DOCTYPE svg PUBLIC "-//W3C//DTD SVG 20010904//EN"
 "http://www.w3.org/TR/2001/REC-SVG-20010904/DTD/svg10.dtd">
<svg version="1.0" xmlns="http://www.w3.org/2000/svg"
 width="388.000000pt" height="388.000000pt" viewBox="0 0 388.000000 388.000000"
 preserveAspectRatio="xMidYMid meet">
<metadata>
Created by potrace 1.14, written by Peter Selinger 2001-2017
</metadata>
<g transform="translate(0.000000,388.000000) scale(0.100000,-0.100000)"
fill="#000000" stroke="none">
<path d="M0 1940 l0 -1940 1940 0 1940 0 0 1940 0 1940 -1940 0 -1940 0 0
-1940z m3554 1369 l256 -471 -132 -204 c-73 -112 -135 -203 -138 -204 -5 0
-172 285 -403 688 l-100 172 -259 0 c-210 0 -259 -3 -255 -13 3 -7 140 -240
304 -518 502 -845 534 -900 531 -908 -8 -21 -294 -451 -299 -451 -6 0 -178
295 -834 1435 -136 237 -252 436 -257 443 -8 9 -74 12 -269 12 -143 0 -259 -3
-259 -6 0 -5 325 -575 595 -1044 81 -140 161 -278 177 -307 19 -33 26 -57 21
-66 -4 -8 -75 -98 -157 -201 -118 -147 -152 -184 -162 -174 -6 7 -82 139 -169
293 -86 154 -280 496 -430 760 -501 883 -695 1225 -695 1230 0 3 602 5 1339 5
l1338 0 257 -471z m-2857 -574 c171 -297 423 -736 560 -975 138 -239 348 -606
468 -815 120 -209 219 -382 221 -384 1 -2 125 181 275 405 149 225 274 410
278 411 3 1 62 -99 129 -223 l124 -225 -106 -162 c-58 -89 -181 -279 -274
-422 l-169 -260 -269 -2 -269 -3 -249 438 c-138 240 -426 745 -641 1122 -641
1123 -696 1221 -688 1233 49 83 287 417 292 410 4 -4 147 -251 318 -548z"/>
</g>
</svg>
